<svg xmlns="http://www.w3.org/2000/svg" viewBox="0 0 349.619 349.619" width="349.619" height="349.619">
  <path d="M10 10h329.62M10 10h329.62m0 0v329.62m0-329.62v329.62m0 0H10m329.62 0H10m0 0V10m0 329.62V10m80.546 311.142c.16-26.02-1.87-127.42-2.05-152.79m-.44 157.72c1.21-25.79 6.16-129.25 6.06-155.02M251.004 321.48c-.27-25.93 1.35-126.99 1.74-152.37m2.21 157.76c.55-25.65 3.93-128.59 3.26-154.39" stroke="#000" stroke-width="10" fill="none" stroke-linecap="round"/>
  <path d="M72.347 170.447c32.37-.56 164.49-3.72 197.41-3.9m-192.99 9.14c31.79.04 158.66-4.29 190.5-6.12" stroke="#000" stroke-width="10" fill="none" stroke-linecap="round"/>
</svg>
