<svg xmlns="http://www.w3.org/2000/svg" viewBox="0 0 349.619 349.619" width="349.619" height="349.619">
  <path d="M10 10h329.62M10 10h329.62m0 0v329.62m0-329.62v329.62m0 0H10m329.62 0H10m0 0V10m0 329.62V10m63.865 88.562c14.02 5.67 16.42 2.02 44.31 1.15m-41.42.45c13.84 1 24.69.24 42.48.34m-5.11.37c7.66 3.55 4.42 11.22 4.61 32.79m-.34-32.2c-.54 10.58-1.36 16.67-1.42 33.87m-1.3.58c-5.49 2.3-16.2-.4-37.24-.58m38.76-1.49c-12.7.66-23.7.67-40.6 1.88m3.2-1.73c.86-13.87-.39-22.04-.71-36.48m-.01 37.33c-1.34-8.19-.25-21.51 0-32.24M68.896 80.08c13.94.44 71.1 2.11 84.93 2.36m-88.19-3.78c13.62.77 73.05 6.44 87.15 7.35" stroke="#000" stroke-width="10" fill="none" stroke-linecap="round"/>
  <path d="M138.99 86.377c-1.3 8.64 1.13 34.91-6.93 51.28-8.05 16.37-34.52 38.97-41.4 46.96m52.82-99.97c-1.57 7.82-4.2 33.42-13.23 49.3-9.02 15.89-34.52 38.18-40.91 46.02" stroke="#000" stroke-width="10" fill="none" stroke-linecap="round"/>
</svg>
