<svg xmlns="http://www.w3.org/2000/svg" viewBox="0 0 349.619 349.619" width="349.619" height="349.619">
  <path d="M10 10h329.62M10 10h329.62m0 0v329.62m0-329.62v329.62m0 0H10m329.62 0H10m0 0V10m0 329.62V10m58.446 155.282c35.89-.79 181.24-2.13 217-1.8m-220.42-1.22c35.58-.72 183.47 3.4 219.5 3.4" stroke="#000" stroke-width="10" fill="none" stroke-linecap="round"/>
  <path d="M61.02 175.727c35.01-2.88 176.86-16.1 212.98-19.65m-208.34 18.5c35.67-2.4 178.16-11.89 213.3-14.87M96.148 129.9c10.77-.63 41.29-2.57 65.93-2.68 24.65-.1 68.77 2.01 81.95 2.04m-143.77-1.56c10.43-.49 35.52 2.43 59.37 1.97 23.85-.46 70.11-4.81 83.73-4.71" stroke="#000" stroke-width="10" fill="none" stroke-linecap="round"/>
</svg>
