<svg xmlns="http://www.w3.org/2000/svg" viewBox="0 0 349.619 349.619" width="349.619" height="349.619">
  <path d="M10 10h329.62M10 10h329.62m0 0v329.62m0-329.62v329.62m0 0H10m329.62 0H10m0 0V10m0 329.62V10m58.906 156.302c36.32.05 180.83-1.71 216.6-1.68m-219.76-.78c36.23.57 182.83 2.6 218.88 3.58" stroke="#000" stroke-width="10" fill="none" stroke-linecap="round"/>
  <path d="M62.04 175.787c35.85-2.87 177.28-16.28 213.1-19.17M58.6 174.667c36.96-3.82 186-19.35 222.12-22.77" stroke="#000" stroke-width="10" fill="none" stroke-linecap="round"/>
  <path d="M140.756 96.731c.3 17.89-.59 87.1-.03 104.53m-3.51-105.74c.06 18.27-.15 90.45.94 108.44" stroke="#000" stroke-width="10" fill="none" stroke-linecap="round"/>
</svg>
