<svg xmlns="http://www.w3.org/2000/svg" viewBox="0 0 349.619 349.619" width="349.619" height="349.619">
  <path d="M10 10h329.62M10 10h329.62m0 0v329.62m0-329.62v329.62m0 0H10m329.62 0H10m0 0V10m0 329.62V10m63.85 49.076c35.74-.6 176.3-2.14 211.29-2.19m-213.32.26c35.35 1.01 174.4 3.37 210.68 2.81M76.243 118.204c35.2-.81 176.85-2.03 212.6-1.48m-215.51-1.39c34.52.7 176.69 3.55 212.7 3.91" stroke="#000" stroke-width="10" fill="none" stroke-linecap="round"/>
  <path d="M94.105 50.525c-.09 12.62 1.53 63.74 2.14 76.43m1.82-78.35c-.6 11.67-4.32 62.1-4.63 74.33m60.176-75.552c.59 12.55.16 64.08-.05 76.99m-2.58-79.15c.45 11.57.76 62.64.62 75.21m61.455-72.863c.07 12.6-1.42 60.16-1.31 72.35m-.95-73.9c-.34 13.08-1.68 63.8-1.32 76.7m57.886-73.161c.22 13.08-3.36 64.93-3.87 77.45m1.91-80.2c1.31 12.38 3.96 62.51 3.37 75.91" stroke="#000" stroke-width="10" fill="none" stroke-linecap="round"/>
</svg>
