<svg xmlns="http://www.w3.org/2000/svg" viewBox="0 0 349.619 349.619" width="349.619" height="349.619">
  <path d="M10 10h329.62M10 10h329.62m0 0v329.62m0-329.62v329.62m0 0H10m329.62 0H10m0 0V10m0 329.62V10m59.22 46.306c36.33.71 181.75 3.54 217.85 4.18m-213.75 1.02c36.25.15 177.05-3.69 212.16-4.65" stroke="#000" stroke-width="10" fill="none" stroke-linecap="round"/>
  <path d="M154.661 46.753c.81 12.19 1.04 61.5.56 74.41m-2.62-76.91c.8 12.46 2.12 67.3 1.57 79.86m56.645-76.053c-.25 11.96-.72 59.66-.27 72.16m-3.2-73.44c-.85 13.54-.61 64.46.29 76.39" stroke="#000" stroke-width="10" fill="none" stroke-linecap="round"/>
</svg>
