<svg xmlns="http://www.w3.org/2000/svg" viewBox="0 0 349.619 349.619" width="349.619" height="349.619">
  <path d="M10 10h329.62M10 10h329.62m0 0v329.62m0-329.62v329.62m0 0H10m329.62 0H10m0 0V10m0 329.62V10m240.143 164.513c-8.54 8.7-31.13 38.54-50.92 53.58-19.79 15.04-56.1 30.61-67.84 36.65m116.02-85.48c-8.87 7.99-29.74 30.05-49.29 44.64-19.55 14.58-56.39 35.94-67.98 42.89" stroke="#000" stroke-width="10" fill="none" stroke-linecap="round"/>
  <path d="M65.106 102.903c15.23 13.81 59.4 57.93 92.78 82.06 33.39 24.13 89.7 52.08 107.55 62.71m-196.56-146.11c15.12 12.82 53.87 54.21 87.59 78.94 33.73 24.73 96.78 57.68 114.75 69.44" stroke="#000" stroke-width="10" fill="none" stroke-linecap="round"/>
</svg>
