<svg xmlns="http://www.w3.org/2000/svg" viewBox="0 0 349.619 349.619" width="349.619" height="349.619">
  <path d="M10 10h329.62M10 10h329.62m0 0v329.62m0-329.62v329.62m0 0H10m329.62 0H10m0 0V10m0 329.62V10m81.419 314.363c.69-25.19 1.3-126.57 1.23-152.22m-3.84 149.36c.57-24.5 2.4-120.72 2.46-145.49m162.438 150.139c.56-25.83 2.2-129.23 2.3-155.02m2.51 153.41c.39-25.49-3.4-124.83-4.51-149.82" stroke="#000" stroke-width="10" fill="none" stroke-linecap="round"/>
  <path d="M79.038 226.192c32.5-.74 164.02-4.27 196.69-4.67m-192.16 2.3c32-.25 156.49 2.06 189.39 1.34" stroke="#000" stroke-width="10" fill="none" stroke-linecap="round"/>
</svg>
