<svg xmlns="http://www.w3.org/2000/svg" viewBox="0 0 349.619 349.619" width="349.619" height="349.619">
  <path d="M10 10h329.62M10 10h329.62m0 0v329.62m0-329.62v329.62m0 0H10m329.62 0H10m0 0V10m0 329.62V10m180.524 166.032c.47 25.05-1.99 127.48-1.79 152.58m-.34-155.47c1.52 24.14 5.13 125.46 5.42 151.55" stroke="#000" stroke-width="10" fill="none" stroke-linecap="round"/>
  <path d="M148.43 291.377c3.13 2.14 14.38 4.7 22.54 9.82 8.17 5.12 22.25 17.37 26.45 20.9m-44.9-32.16c3.81 2.74 16.11 9.13 23.49 14.9 7.39 5.76 17.29 16.42 20.83 19.68" stroke="#000" stroke-width="10" fill="none" stroke-linecap="round"/>
</svg>
