<svg xmlns="http://www.w3.org/2000/svg" viewBox="0 0 349.619 349.619" width="349.619" height="349.619">
  <path d="M10 10h329.62M10 10h329.62m0 0v329.62m0-329.62v329.62m0 0H10m329.62 0H10m0 0V10m0 329.62V10m161.13 50.76c-.11 19.21-.44 95.52-.57 115.39M167.39 59.7c-.28 20.67 1.61 99.56 1.95 118.82m-54.087-98.722c8.82 5.18 42.65 26.35 51.89 31.19m-47.04-32.42c8.51 5.63 35.88 22.98 44.24 28.55m10.493 6.064c5.92-5.1 27.94-22.67 34.03-27.28m-36.14 32.31c5.37-5.95 27.09-29.83 33.37-36.02" stroke="#000" stroke-width="10" fill="none" stroke-linecap="round"/>
</svg>
