<svg xmlns="http://www.w3.org/2000/svg" viewBox="0 0 349.619 349.619" width="349.619" height="349.619">
  <path d="M10 10h329.62M10 10h329.62m0 0v329.62m0-329.62v329.62m0 0H10m329.62 0H10m0 0V10m0 329.62V10m152.507 45.867c-.64 38.14-1.74 191.59-1.57 229.72m5.82-232.76c.24 38.62.52 197.22-.22 236.27M107.401 74.794c8.71 5.7 44.43 28.25 53.13 33.93m-48.5-28.56c8.33 5 38.62 20.15 46.15 24.14" stroke="#000" stroke-width="10" fill="none" stroke-linecap="round"/>
  <path d="M163.474 113.818c6.72-5.3 33.32-27.7 40.02-32.69m-35.62 30.11c6.59-4.83 28.18-21.76 33.97-27.1" stroke="#000" stroke-width="10" fill="none" stroke-linecap="round"/>
</svg>
