<svg xmlns="http://www.w3.org/2000/svg" viewBox="0 0 349.619 349.619" width="349.619" height="349.619">
  <path d="M10 10h329.62M10 10h329.62m0 0v329.62m0-329.62v329.62m0 0H10m329.62 0H10m0 0V10m0 329.62V10m76.386 314.042c.32-25.22 4.23-126.99 4.92-152.32m-1.03 149.65c.02-25.99-.27-128.58-.46-154.3M252.934 325.27c.53-25.06 1.78-128.45 2.2-154.11m-5.85 152.38c.35-25.74 3.16-132.26 3.98-157.06" stroke="#000" stroke-width="10" fill="none" stroke-linecap="round"/>
  <path d="M75.743 272.1c33.24-.52 163.04-3.39 195.67-4.18M73.033 270c33.14-1.36 163.63-6.66 196.48-6.54" stroke="#000" stroke-width="10" fill="none" stroke-linecap="round"/>
</svg>
