<svg xmlns="http://www.w3.org/2000/svg" viewBox="0 0 349.619 349.619" width="349.619" height="349.619">
  <path d="M10 10h329.62M10 10h329.62m0 0v329.62m0-329.62v329.62m0 0H10m329.62 0H10m0 0V10m0 329.62V10m78.555 262.58c.03-13.46.44-69.98.92-83.93m-4.18 82.77c-.48-13.09.83-66.78 1.69-80.17m168.117 83.288c.1-13.97-2.16-68.67-2.55-82.97m.41 80.24c1.06-14.81 4-70.98 4.96-84.42" stroke="#000" stroke-width="10" fill="none" stroke-linecap="round"/>
  <path d="M73.337 190.74c32.93-1.43 165.8-3.97 198.4-4.29m-202.1 9.43c32.66.12 167.89-6.12 200.69-6.71M64.285 240.495c37.23-.08 188.33 3.78 226.58 4.3m-222.46.52c36.67-1.08 182.35-4.85 219.8-4.54" stroke="#000" stroke-width="10" fill="none" stroke-linecap="round"/>
</svg>
