<svg xmlns="http://www.w3.org/2000/svg" viewBox="0 0 349.619 349.619" width="349.619" height="349.619">
  <path d="M10 10h329.62M10 10h329.62m0 0v329.62m0-329.62v329.62m0 0H10m329.62 0H10m0 0V10m0 329.62V10m77.685 260.72c.39-13.71 2.16-69.08 2.3-82.39m-6.02 80.22c.06-13.47 3.47-65.4 3.81-77.8m165.467 84.288c-.14-14.3-1.27-72.07-1.01-86.38m-2.14 83.94c.68-13.9 6.82-67.6 7.33-81.07" stroke="#000" stroke-width="10" fill="none" stroke-linecap="round"/>
  <path d="M73.837 190.42c32.59-.79 162.41-1.43 194.99-1.96m-198.41 6.92c33.58-.32 171.28-2.2 204.05-3.11M64.045 241.595c37.52-.16 190.14.16 227.93.5m-223.94 4.91c37.13.25 185.13-1.78 221.88-1.76M72.411 169.343c32.92.52 162.32 2.22 194.98 2.6m-198.25-5.54c32.67-.26 162.63-.52 195.54.91M74.966 152.092c33.05-.96 160.95-2.65 193.01-3.08m-195.09 8.28c32.98-.54 161.14-3.85 193.25-4.57" stroke="#000" stroke-width="10" fill="none" stroke-linecap="round"/>
</svg>
