<svg xmlns="http://www.w3.org/2000/svg" viewBox="0 0 349.619 349.619" width="349.619" height="349.619">
  <path d="M10 10h329.62M10 10h329.62m0 0v329.62m0-329.62v329.62m0 0H10m329.62 0H10m0 0V10m0 329.62V10m118.944 167.343c8.56 8.05 31.57 33.35 51.16 48.59 19.59 15.24 54.62 35.86 66.37 42.85m-113.11-93.78c9.6 8.41 32.3 39.31 52.07 54.21 19.78 14.89 55.47 29.64 66.59 35.18" stroke="#000" stroke-width="10" fill="none" stroke-linecap="round"/>
  <path d="M269.593 98.753c-14.29 14.11-56.67 60.5-90.49 85.62-33.83 25.11-93.78 54.04-112.48 65.07m200.72-145.64c-14.39 14.73-56.42 59.61-90.27 84.42-33.86 24.82-94.52 54.95-112.85 64.45" stroke="#000" stroke-width="10" fill="none" stroke-linecap="round"/>
</svg>
